# Crema ship - generated by tools/gen_ship.py, MIT
o ship
v 0.017321 0.007200 -3.400000
v 0.000000 0.014400 -3.400000
v 0.000000 0.158400 -2.600000
v 0.017321 0.007200 -3.400000
v 0.000000 0.158400 -2.600000
v 0.190526 0.079200 -2.600000
v 0.000000 0.014400 -3.400000
v -0.017321 0.007200 -3.400000
v -0.190526 0.079200 -2.600000
v 0.000000 0.014400 -3.400000
v -0.190526 0.079200 -2.600000
v 0.000000 0.158400 -2.600000
v -0.017321 0.007200 -3.400000
v -0.017321 -0.007200 -3.400000
v -0.190526 -0.079200 -2.600000
v -0.017321 0.007200 -3.400000
v -0.190526 -0.079200 -2.600000
v -0.190526 0.079200 -2.600000
v -0.017321 -0.007200 -3.400000
v -0.000000 -0.014400 -3.400000
v -0.000000 -0.158400 -2.600000
v -0.017321 -0.007200 -3.400000
v -0.000000 -0.158400 -2.600000
v -0.190526 -0.079200 -2.600000
v -0.000000 -0.014400 -3.400000
v 0.017321 -0.007200 -3.400000
v 0.190526 -0.079200 -2.600000
v -0.000000 -0.014400 -3.400000
v 0.190526 -0.079200 -2.600000
v -0.000000 -0.158400 -2.600000
v 0.017321 -0.007200 -3.400000
v 0.017321 0.007200 -3.400000
v 0.190526 0.079200 -2.600000
v 0.017321 -0.007200 -3.400000
v 0.190526 0.079200 -2.600000
v 0.190526 -0.079200 -2.600000
v 0.190526 0.079200 -2.600000
v 0.000000 0.158400 -2.600000
v 0.000000 0.302400 -1.600000
v 0.190526 0.079200 -2.600000
v 0.000000 0.302400 -1.600000
v 0.363731 0.151200 -1.600000
v 0.000000 0.158400 -2.600000
v -0.190526 0.079200 -2.600000
v -0.363731 0.151200 -1.600000
v 0.000000 0.158400 -2.600000
v -0.363731 0.151200 -1.600000
v 0.000000 0.302400 -1.600000
v -0.190526 0.079200 -2.600000
v -0.190526 -0.079200 -2.600000
v -0.363731 -0.151200 -1.600000
v -0.190526 0.079200 -2.600000
v -0.363731 -0.151200 -1.600000
v -0.363731 0.151200 -1.600000
v -0.190526 -0.079200 -2.600000
v -0.000000 -0.158400 -2.600000
v -0.000000 -0.302400 -1.600000
v -0.190526 -0.079200 -2.600000
v -0.000000 -0.302400 -1.600000
v -0.363731 -0.151200 -1.600000
v -0.000000 -0.158400 -2.600000
v 0.190526 -0.079200 -2.600000
v 0.363731 -0.151200 -1.600000
v -0.000000 -0.158400 -2.600000
v 0.363731 -0.151200 -1.600000
v -0.000000 -0.302400 -1.600000
v 0.190526 -0.079200 -2.600000
v 0.190526 0.079200 -2.600000
v 0.363731 0.151200 -1.600000
v 0.190526 -0.079200 -2.600000
v 0.363731 0.151200 -1.600000
v 0.363731 -0.151200 -1.600000
v 0.363731 0.151200 -1.600000
v 0.000000 0.302400 -1.600000
v 0.000000 0.374400 -0.300000
v 0.363731 0.151200 -1.600000
v 0.000000 0.374400 -0.300000
v 0.450333 0.187200 -0.300000
v 0.000000 0.302400 -1.600000
v -0.363731 0.151200 -1.600000
v -0.450333 0.187200 -0.300000
v 0.000000 0.302400 -1.600000
v -0.450333 0.187200 -0.300000
v 0.000000 0.374400 -0.300000
v -0.363731 0.151200 -1.600000
v -0.363731 -0.151200 -1.600000
v -0.450333 -0.187200 -0.300000
v -0.363731 0.151200 -1.600000
v -0.450333 -0.187200 -0.300000
v -0.450333 0.187200 -0.300000
v -0.363731 -0.151200 -1.600000
v -0.000000 -0.302400 -1.600000
v -0.000000 -0.374400 -0.300000
v -0.363731 -0.151200 -1.600000
v -0.000000 -0.374400 -0.300000
v -0.450333 -0.187200 -0.300000
v -0.000000 -0.302400 -1.600000
v 0.363731 -0.151200 -1.600000
v 0.450333 -0.187200 -0.300000
v -0.000000 -0.302400 -1.600000
v 0.450333 -0.187200 -0.300000
v -0.000000 -0.374400 -0.300000
v 0.363731 -0.151200 -1.600000
v 0.363731 0.151200 -1.600000
v 0.450333 0.187200 -0.300000
v 0.363731 -0.151200 -1.600000
v 0.450333 0.187200 -0.300000
v 0.450333 -0.187200 -0.300000
v 0.450333 0.187200 -0.300000
v 0.000000 0.374400 -0.300000
v 0.000000 0.345600 1.000000
v 0.450333 0.187200 -0.300000
v 0.000000 0.345600 1.000000
v 0.415692 0.172800 1.000000
v 0.000000 0.374400 -0.300000
v -0.450333 0.187200 -0.300000
v -0.415692 0.172800 1.000000
v 0.000000 0.374400 -0.300000
v -0.415692 0.172800 1.000000
v 0.000000 0.345600 1.000000
v -0.450333 0.187200 -0.300000
v -0.450333 -0.187200 -0.300000
v -0.415692 -0.172800 1.000000
v -0.450333 0.187200 -0.300000
v -0.415692 -0.172800 1.000000
v -0.415692 0.172800 1.000000
v -0.450333 -0.187200 -0.300000
v -0.000000 -0.374400 -0.300000
v -0.000000 -0.345600 1.000000
v -0.450333 -0.187200 -0.300000
v -0.000000 -0.345600 1.000000
v -0.415692 -0.172800 1.000000
v -0.000000 -0.374400 -0.300000
v 0.450333 -0.187200 -0.300000
v 0.415692 -0.172800 1.000000
v -0.000000 -0.374400 -0.300000
v 0.415692 -0.172800 1.000000
v -0.000000 -0.345600 1.000000
v 0.450333 -0.187200 -0.300000
v 0.450333 0.187200 -0.300000
v 0.415692 0.172800 1.000000
v 0.450333 -0.187200 -0.300000
v 0.415692 0.172800 1.000000
v 0.415692 -0.172800 1.000000
v 0.415692 0.172800 1.000000
v 0.000000 0.345600 1.000000
v 0.000000 0.288000 2.100000
v 0.415692 0.172800 1.000000
v 0.000000 0.288000 2.100000
v 0.346410 0.144000 2.100000
v 0.000000 0.345600 1.000000
v -0.415692 0.172800 1.000000
v -0.346410 0.144000 2.100000
v 0.000000 0.345600 1.000000
v -0.346410 0.144000 2.100000
v 0.000000 0.288000 2.100000
v -0.415692 0.172800 1.000000
v -0.415692 -0.172800 1.000000
v -0.346410 -0.144000 2.100000
v -0.415692 0.172800 1.000000
v -0.346410 -0.144000 2.100000
v -0.346410 0.144000 2.100000
v -0.415692 -0.172800 1.000000
v -0.000000 -0.345600 1.000000
v -0.000000 -0.288000 2.100000
v -0.415692 -0.172800 1.000000
v -0.000000 -0.288000 2.100000
v -0.346410 -0.144000 2.100000
v -0.000000 -0.345600 1.000000
v 0.415692 -0.172800 1.000000
v 0.346410 -0.144000 2.100000
v -0.000000 -0.345600 1.000000
v 0.346410 -0.144000 2.100000
v -0.000000 -0.288000 2.100000
v 0.415692 -0.172800 1.000000
v 0.415692 0.172800 1.000000
v 0.346410 0.144000 2.100000
v 0.415692 -0.172800 1.000000
v 0.346410 0.144000 2.100000
v 0.346410 -0.144000 2.100000
v -0.000000 -0.000000 -3.400000
v 0.000000 0.014400 -3.400000
v 0.017321 0.007200 -3.400000
v -0.000000 -0.000000 -3.400000
v -0.017321 0.007200 -3.400000
v 0.000000 0.014400 -3.400000
v -0.000000 -0.000000 -3.400000
v -0.017321 -0.007200 -3.400000
v -0.017321 0.007200 -3.400000
v -0.000000 -0.000000 -3.400000
v -0.000000 -0.014400 -3.400000
v -0.017321 -0.007200 -3.400000
v -0.000000 -0.000000 -3.400000
v 0.017321 -0.007200 -3.400000
v -0.000000 -0.014400 -3.400000
v -0.000000 -0.000000 -3.400000
v 0.017321 0.007200 -3.400000
v 0.017321 -0.007200 -3.400000
v -0.000000 -0.000000 2.100000
v 0.346410 0.144000 2.100000
v 0.000000 0.288000 2.100000
v -0.000000 -0.000000 2.100000
v 0.000000 0.288000 2.100000
v -0.346410 0.144000 2.100000
v -0.000000 -0.000000 2.100000
v -0.346410 0.144000 2.100000
v -0.346410 -0.144000 2.100000
v -0.000000 -0.000000 2.100000
v -0.346410 -0.144000 2.100000
v -0.000000 -0.288000 2.100000
v -0.000000 -0.000000 2.100000
v -0.000000 -0.288000 2.100000
v 0.346410 -0.144000 2.100000
v -0.000000 -0.000000 2.100000
v 0.346410 -0.144000 2.100000
v 0.346410 0.144000 2.100000
v 0.043301 0.355500 -1.900000
v 0.000000 0.371000 -1.900000
v 0.000000 0.464000 -1.400000
v 0.043301 0.355500 -1.900000
v 0.000000 0.464000 -1.400000
v 0.173205 0.402000 -1.400000
v 0.000000 0.371000 -1.900000
v -0.043301 0.355500 -1.900000
v -0.173205 0.402000 -1.400000
v 0.000000 0.371000 -1.900000
v -0.173205 0.402000 -1.400000
v 0.000000 0.464000 -1.400000
v -0.043301 0.355500 -1.900000
v -0.043301 0.324500 -1.900000
v -0.173205 0.278000 -1.400000
v -0.043301 0.355500 -1.900000
v -0.173205 0.278000 -1.400000
v -0.173205 0.402000 -1.400000
v -0.043301 0.324500 -1.900000
v -0.000000 0.309000 -1.900000
v -0.000000 0.216000 -1.400000
v -0.043301 0.324500 -1.900000
v -0.000000 0.216000 -1.400000
v -0.173205 0.278000 -1.400000
v -0.000000 0.309000 -1.900000
v 0.043301 0.324500 -1.900000
v 0.173205 0.278000 -1.400000
v -0.000000 0.309000 -1.900000
v 0.173205 0.278000 -1.400000
v -0.000000 0.216000 -1.400000
v 0.043301 0.324500 -1.900000
v 0.043301 0.355500 -1.900000
v 0.173205 0.402000 -1.400000
v 0.043301 0.324500 -1.900000
v 0.173205 0.402000 -1.400000
v 0.173205 0.278000 -1.400000
v 0.173205 0.402000 -1.400000
v 0.000000 0.464000 -1.400000
v 0.000000 0.501200 -0.700000
v 0.173205 0.402000 -1.400000
v 0.000000 0.501200 -0.700000
v 0.225167 0.420600 -0.700000
v 0.000000 0.464000 -1.400000
v -0.173205 0.402000 -1.400000
v -0.225167 0.420600 -0.700000
v 0.000000 0.464000 -1.400000
v -0.225167 0.420600 -0.700000
v 0.000000 0.501200 -0.700000
v -0.173205 0.402000 -1.400000
v -0.173205 0.278000 -1.400000
v -0.225167 0.259400 -0.700000
v -0.173205 0.402000 -1.400000
v -0.225167 0.259400 -0.700000
v -0.225167 0.420600 -0.700000
v -0.173205 0.278000 -1.400000
v -0.000000 0.216000 -1.400000
v -0.000000 0.178800 -0.700000
v -0.173205 0.278000 -1.400000
v -0.000000 0.178800 -0.700000
v -0.225167 0.259400 -0.700000
v -0.000000 0.216000 -1.400000
v 0.173205 0.278000 -1.400000
v 0.225167 0.259400 -0.700000
v -0.000000 0.216000 -1.400000
v 0.225167 0.259400 -0.700000
v -0.000000 0.178800 -0.700000
v 0.173205 0.278000 -1.400000
v 0.173205 0.402000 -1.400000
v 0.225167 0.420600 -0.700000
v 0.173205 0.278000 -1.400000
v 0.225167 0.420600 -0.700000
v 0.225167 0.259400 -0.700000
v 0.225167 0.420600 -0.700000
v 0.000000 0.501200 -0.700000
v 0.000000 0.451600 0.100000
v 0.225167 0.420600 -0.700000
v 0.000000 0.451600 0.100000
v 0.155885 0.395800 0.100000
v 0.000000 0.501200 -0.700000
v -0.225167 0.420600 -0.700000
v -0.155885 0.395800 0.100000
v 0.000000 0.501200 -0.700000
v -0.155885 0.395800 0.100000
v 0.000000 0.451600 0.100000
v -0.225167 0.420600 -0.700000
v -0.225167 0.259400 -0.700000
v -0.155885 0.284200 0.100000
v -0.225167 0.420600 -0.700000
v -0.155885 0.284200 0.100000
v -0.155885 0.395800 0.100000
v -0.225167 0.259400 -0.700000
v -0.000000 0.178800 -0.700000
v -0.000000 0.228400 0.100000
v -0.225167 0.259400 -0.700000
v -0.000000 0.228400 0.100000
v -0.155885 0.284200 0.100000
v -0.000000 0.178800 -0.700000
v 0.225167 0.259400 -0.700000
v 0.155885 0.284200 0.100000
v -0.000000 0.178800 -0.700000
v 0.155885 0.284200 0.100000
v -0.000000 0.228400 0.100000
v 0.225167 0.259400 -0.700000
v 0.225167 0.420600 -0.700000
v 0.155885 0.395800 0.100000
v 0.225167 0.259400 -0.700000
v 0.155885 0.395800 0.100000
v 0.155885 0.284200 0.100000
v 0.155885 0.395800 0.100000
v 0.000000 0.451600 0.100000
v 0.000000 0.364800 0.450000
v 0.155885 0.395800 0.100000
v 0.000000 0.364800 0.450000
v 0.034641 0.352400 0.450000
v 0.000000 0.451600 0.100000
v -0.155885 0.395800 0.100000
v -0.034641 0.352400 0.450000
v 0.000000 0.451600 0.100000
v -0.034641 0.352400 0.450000
v 0.000000 0.364800 0.450000
v -0.155885 0.395800 0.100000
v -0.155885 0.284200 0.100000
v -0.034641 0.327600 0.450000
v -0.155885 0.395800 0.100000
v -0.034641 0.327600 0.450000
v -0.034641 0.352400 0.450000
v -0.155885 0.284200 0.100000
v -0.000000 0.228400 0.100000
v -0.000000 0.315200 0.450000
v -0.155885 0.284200 0.100000
v -0.000000 0.315200 0.450000
v -0.034641 0.327600 0.450000
v -0.000000 0.228400 0.100000
v 0.155885 0.284200 0.100000
v 0.034641 0.327600 0.450000
v -0.000000 0.228400 0.100000
v 0.034641 0.327600 0.450000
v -0.000000 0.315200 0.450000
v 0.155885 0.284200 0.100000
v 0.155885 0.395800 0.100000
v 0.034641 0.352400 0.450000
v 0.155885 0.284200 0.100000
v 0.034641 0.352400 0.450000
v 0.034641 0.327600 0.450000
v -0.000000 0.340000 -1.900000
v 0.000000 0.371000 -1.900000
v 0.043301 0.355500 -1.900000
v -0.000000 0.340000 -1.900000
v -0.043301 0.355500 -1.900000
v 0.000000 0.371000 -1.900000
v -0.000000 0.340000 -1.900000
v -0.043301 0.324500 -1.900000
v -0.043301 0.355500 -1.900000
v -0.000000 0.340000 -1.900000
v -0.000000 0.309000 -1.900000
v -0.043301 0.324500 -1.900000
v -0.000000 0.340000 -1.900000
v 0.043301 0.324500 -1.900000
v -0.000000 0.309000 -1.900000
v -0.000000 0.340000 -1.900000
v 0.043301 0.355500 -1.900000
v 0.043301 0.324500 -1.900000
v -0.000000 0.340000 0.450000
v 0.034641 0.352400 0.450000
v 0.000000 0.364800 0.450000
v -0.000000 0.340000 0.450000
v 0.000000 0.364800 0.450000
v -0.034641 0.352400 0.450000
v -0.000000 0.340000 0.450000
v -0.034641 0.352400 0.450000
v -0.034641 0.327600 0.450000
v -0.000000 0.340000 0.450000
v -0.034641 0.327600 0.450000
v -0.000000 0.315200 0.450000
v -0.000000 0.340000 0.450000
v -0.000000 0.315200 0.450000
v 0.034641 0.327600 0.450000
v -0.000000 0.340000 0.450000
v 0.034641 0.327600 0.450000
v 0.034641 0.352400 0.450000
v 0.350000 0.090000 0.950000
v 2.650000 0.090000 1.600000
v 2.650000 0.090000 1.050000
v 0.350000 -0.090000 0.950000
v 2.650000 -0.090000 1.050000
v 2.650000 -0.090000 1.600000
v 0.350000 0.090000 0.950000
v 2.650000 0.090000 1.050000
v 0.350000 0.090000 -0.600000
v 0.350000 -0.090000 0.950000
v 0.350000 -0.090000 -0.600000
v 2.650000 -0.090000 1.050000
v 0.350000 0.090000 0.950000
v 0.350000 -0.090000 0.950000
v 2.650000 -0.090000 1.600000
v 0.350000 0.090000 0.950000
v 2.650000 -0.090000 1.600000
v 2.650000 0.090000 1.600000
v 2.650000 0.090000 1.600000
v 2.650000 -0.090000 1.600000
v 2.650000 -0.090000 1.050000
v 2.650000 0.090000 1.600000
v 2.650000 -0.090000 1.050000
v 2.650000 0.090000 1.050000
v 2.650000 0.090000 1.050000
v 2.650000 -0.090000 1.050000
v 0.350000 -0.090000 -0.600000
v 2.650000 0.090000 1.050000
v 0.350000 -0.090000 -0.600000
v 0.350000 0.090000 -0.600000
v 0.350000 0.090000 -0.600000
v 0.350000 -0.090000 -0.600000
v 0.350000 -0.090000 0.950000
v 0.350000 0.090000 -0.600000
v 0.350000 -0.090000 0.950000
v 0.350000 0.090000 0.950000
v -0.350000 0.090000 -0.600000
v -2.650000 0.090000 1.050000
v -2.650000 0.090000 1.600000
v -0.350000 -0.090000 -0.600000
v -2.650000 -0.090000 1.600000
v -2.650000 -0.090000 1.050000
v -0.350000 0.090000 -0.600000
v -2.650000 0.090000 1.600000
v -0.350000 0.090000 0.950000
v -0.350000 -0.090000 -0.600000
v -0.350000 -0.090000 0.950000
v -2.650000 -0.090000 1.600000
v -0.350000 0.090000 -0.600000
v -0.350000 -0.090000 -0.600000
v -2.650000 -0.090000 1.050000
v -0.350000 0.090000 -0.600000
v -2.650000 -0.090000 1.050000
v -2.650000 0.090000 1.050000
v -2.650000 0.090000 1.050000
v -2.650000 -0.090000 1.050000
v -2.650000 -0.090000 1.600000
v -2.650000 0.090000 1.050000
v -2.650000 -0.090000 1.600000
v -2.650000 0.090000 1.600000
v -2.650000 0.090000 1.600000
v -2.650000 -0.090000 1.600000
v -0.350000 -0.090000 0.950000
v -2.650000 0.090000 1.600000
v -0.350000 -0.090000 0.950000
v -0.350000 0.090000 0.950000
v -0.350000 0.090000 0.950000
v -0.350000 -0.090000 0.950000
v -0.350000 -0.090000 -0.600000
v -0.350000 0.090000 0.950000
v -0.350000 -0.090000 -0.600000
v -0.350000 0.090000 -0.600000
v 2.050000 0.950000 1.550000
v 2.700000 0.950000 1.620000
v 2.700000 0.950000 1.050000
v 2.050000 0.050000 1.550000
v 2.700000 0.050000 1.050000
v 2.700000 0.050000 1.620000
v 2.050000 0.950000 1.550000
v 2.700000 0.950000 1.050000
v 2.050000 0.950000 0.950000
v 2.050000 0.050000 1.550000
v 2.050000 0.050000 0.950000
v 2.700000 0.050000 1.050000
v 2.050000 0.950000 1.550000
v 2.050000 0.050000 1.550000
v 2.700000 0.050000 1.620000
v 2.050000 0.950000 1.550000
v 2.700000 0.050000 1.620000
v 2.700000 0.950000 1.620000
v 2.700000 0.950000 1.620000
v 2.700000 0.050000 1.620000
v 2.700000 0.050000 1.050000
v 2.700000 0.950000 1.620000
v 2.700000 0.050000 1.050000
v 2.700000 0.950000 1.050000
v 2.700000 0.950000 1.050000
v 2.700000 0.050000 1.050000
v 2.050000 0.050000 0.950000
v 2.700000 0.950000 1.050000
v 2.050000 0.050000 0.950000
v 2.050000 0.950000 0.950000
v 2.050000 0.950000 0.950000
v 2.050000 0.050000 0.950000
v 2.050000 0.050000 1.550000
v 2.050000 0.950000 0.950000
v 2.050000 0.050000 1.550000
v 2.050000 0.950000 1.550000
v -2.050000 0.950000 0.950000
v -2.700000 0.950000 1.050000
v -2.700000 0.950000 1.620000
v -2.050000 0.050000 0.950000
v -2.700000 0.050000 1.620000
v -2.700000 0.050000 1.050000
v -2.050000 0.950000 0.950000
v -2.700000 0.950000 1.620000
v -2.050000 0.950000 1.550000
v -2.050000 0.050000 0.950000
v -2.050000 0.050000 1.550000
v -2.700000 0.050000 1.620000
v -2.050000 0.950000 0.950000
v -2.050000 0.050000 0.950000
v -2.700000 0.050000 1.050000
v -2.050000 0.950000 0.950000
v -2.700000 0.050000 1.050000
v -2.700000 0.950000 1.050000
v -2.700000 0.950000 1.050000
v -2.700000 0.050000 1.050000
v -2.700000 0.050000 1.620000
v -2.700000 0.950000 1.050000
v -2.700000 0.050000 1.620000
v -2.700000 0.950000 1.620000
v -2.700000 0.950000 1.620000
v -2.700000 0.050000 1.620000
v -2.050000 0.050000 1.550000
v -2.700000 0.950000 1.620000
v -2.050000 0.050000 1.550000
v -2.050000 0.950000 1.550000
v -2.050000 0.950000 1.550000
v -2.050000 0.050000 1.550000
v -2.050000 0.050000 0.950000
v -2.050000 0.950000 1.550000
v -2.050000 0.050000 0.950000
v -2.050000 0.950000 0.950000
v 0.550000 0.280000 2.450000
v 1.150000 0.280000 2.450000
v 1.150000 0.280000 1.400000
v 0.550000 -0.280000 2.450000
v 1.150000 -0.280000 1.400000
v 1.150000 -0.280000 2.450000
v 0.550000 0.280000 2.450000
v 1.150000 0.280000 1.400000
v 0.550000 0.280000 1.400000
v 0.550000 -0.280000 2.450000
v 0.550000 -0.280000 1.400000
v 1.150000 -0.280000 1.400000
v 0.550000 0.280000 2.450000
v 0.550000 -0.280000 2.450000
v 1.150000 -0.280000 2.450000
v 0.550000 0.280000 2.450000
v 1.150000 -0.280000 2.450000
v 1.150000 0.280000 2.450000
v 1.150000 0.280000 2.450000
v 1.150000 -0.280000 2.450000
v 1.150000 -0.280000 1.400000
v 1.150000 0.280000 2.450000
v 1.150000 -0.280000 1.400000
v 1.150000 0.280000 1.400000
v 1.150000 0.280000 1.400000
v 1.150000 -0.280000 1.400000
v 0.550000 -0.280000 1.400000
v 1.150000 0.280000 1.400000
v 0.550000 -0.280000 1.400000
v 0.550000 0.280000 1.400000
v 0.550000 0.280000 1.400000
v 0.550000 -0.280000 1.400000
v 0.550000 -0.280000 2.450000
v 0.550000 0.280000 1.400000
v 0.550000 -0.280000 2.450000
v 0.550000 0.280000 2.450000
v -0.550000 0.280000 1.400000
v -1.150000 0.280000 1.400000
v -1.150000 0.280000 2.450000
v -0.550000 -0.280000 1.400000
v -1.150000 -0.280000 2.450000
v -1.150000 -0.280000 1.400000
v -0.550000 0.280000 1.400000
v -1.150000 0.280000 2.450000
v -0.550000 0.280000 2.450000
v -0.550000 -0.280000 1.400000
v -0.550000 -0.280000 2.450000
v -1.150000 -0.280000 2.450000
v -0.550000 0.280000 1.400000
v -0.550000 -0.280000 1.400000
v -1.150000 -0.280000 1.400000
v -0.550000 0.280000 1.400000
v -1.150000 -0.280000 1.400000
v -1.150000 0.280000 1.400000
v -1.150000 0.280000 1.400000
v -1.150000 -0.280000 1.400000
v -1.150000 -0.280000 2.450000
v -1.150000 0.280000 1.400000
v -1.150000 -0.280000 2.450000
v -1.150000 0.280000 2.450000
v -1.150000 0.280000 2.450000
v -1.150000 -0.280000 2.450000
v -0.550000 -0.280000 2.450000
v -1.150000 0.280000 2.450000
v -0.550000 -0.280000 2.450000
v -0.550000 0.280000 2.450000
v -0.550000 0.280000 2.450000
v -0.550000 -0.280000 2.450000
v -0.550000 -0.280000 1.400000
v -0.550000 0.280000 2.450000
v -0.550000 -0.280000 1.400000
v -0.550000 0.280000 1.400000
v -0.100000 1.350000 2.200000
v 0.100000 1.350000 2.200000
v 0.100000 1.350000 0.900000
v -0.100000 0.300000 2.200000
v 0.100000 0.300000 0.900000
v 0.100000 0.300000 2.200000
v -0.100000 1.350000 2.200000
v 0.100000 1.350000 0.900000
v -0.100000 1.350000 0.900000
v -0.100000 0.300000 2.200000
v -0.100000 0.300000 0.900000
v 0.100000 0.300000 0.900000
v -0.100000 1.350000 2.200000
v -0.100000 0.300000 2.200000
v 0.100000 0.300000 2.200000
v -0.100000 1.350000 2.200000
v 0.100000 0.300000 2.200000
v 0.100000 1.350000 2.200000
v 0.100000 1.350000 2.200000
v 0.100000 0.300000 2.200000
v 0.100000 0.300000 0.900000
v 0.100000 1.350000 2.200000
v 0.100000 0.300000 0.900000
v 0.100000 1.350000 0.900000
v 0.100000 1.350000 0.900000
v 0.100000 0.300000 0.900000
v -0.100000 0.300000 0.900000
v 0.100000 1.350000 0.900000
v -0.100000 0.300000 0.900000
v -0.100000 1.350000 0.900000
v -0.100000 1.350000 0.900000
v -0.100000 0.300000 0.900000
v -0.100000 0.300000 2.200000
v -0.100000 1.350000 0.900000
v -0.100000 0.300000 2.200000
v -0.100000 1.350000 2.200000
vt 0.007275 -1.428000
vt 0.000000 -1.428000
vt 0.000000 -1.092000
vt 0.007275 -1.428000
vt 0.000000 -1.092000
vt 0.080021 -1.092000
vt 0.000000 -1.428000
vt -0.007275 -1.428000
vt -0.080021 -1.092000
vt 0.000000 -1.428000
vt -0.080021 -1.092000
vt 0.000000 -1.092000
vt -1.428000 0.003024
vt -1.428000 -0.003024
vt -1.092000 -0.033264
vt -1.428000 0.003024
vt -1.092000 -0.033264
vt -1.092000 0.033264
vt -0.007275 -1.428000
vt -0.000000 -1.428000
vt -0.000000 -1.092000
vt -0.007275 -1.428000
vt -0.000000 -1.092000
vt -0.080021 -1.092000
vt -0.000000 -1.428000
vt 0.007275 -1.428000
vt 0.080021 -1.092000
vt -0.000000 -1.428000
vt 0.080021 -1.092000
vt -0.000000 -1.092000
vt -1.428000 -0.003024
vt -1.428000 0.003024
vt -1.092000 0.033264
vt -1.428000 -0.003024
vt -1.092000 0.033264
vt -1.092000 -0.033264
vt 0.080021 -1.092000
vt 0.000000 -1.092000
vt 0.000000 -0.672000
vt 0.080021 -1.092000
vt 0.000000 -0.672000
vt 0.152767 -0.672000
vt 0.000000 -1.092000
vt -0.080021 -1.092000
vt -0.152767 -0.672000
vt 0.000000 -1.092000
vt -0.152767 -0.672000
vt 0.000000 -0.672000
vt -1.092000 0.033264
vt -1.092000 -0.033264
vt -0.672000 -0.063504
vt -1.092000 0.033264
vt -0.672000 -0.063504
vt -0.672000 0.063504
vt -0.080021 -1.092000
vt -0.000000 -1.092000
vt -0.000000 -0.672000
vt -0.080021 -1.092000
vt -0.000000 -0.672000
vt -0.152767 -0.672000
vt -0.000000 -1.092000
vt 0.080021 -1.092000
vt 0.152767 -0.672000
vt -0.000000 -1.092000
vt 0.152767 -0.672000
vt -0.000000 -0.672000
vt -1.092000 -0.033264
vt -1.092000 0.033264
vt -0.672000 0.063504
vt -1.092000 -0.033264
vt -0.672000 0.063504
vt -0.672000 -0.063504
vt 0.152767 -0.672000
vt 0.000000 -0.672000
vt 0.000000 -0.126000
vt 0.152767 -0.672000
vt 0.000000 -0.126000
vt 0.189140 -0.126000
vt 0.000000 -0.672000
vt -0.152767 -0.672000
vt -0.189140 -0.126000
vt 0.000000 -0.672000
vt -0.189140 -0.126000
vt 0.000000 -0.126000
vt -0.672000 0.063504
vt -0.672000 -0.063504
vt -0.126000 -0.078624
vt -0.672000 0.063504
vt -0.126000 -0.078624
vt -0.126000 0.078624
vt -0.152767 -0.672000
vt -0.000000 -0.672000
vt -0.000000 -0.126000
vt -0.152767 -0.672000
vt -0.000000 -0.126000
vt -0.189140 -0.126000
vt -0.000000 -0.672000
vt 0.152767 -0.672000
vt 0.189140 -0.126000
vt -0.000000 -0.672000
vt 0.189140 -0.126000
vt -0.000000 -0.126000
vt -0.672000 -0.063504
vt -0.672000 0.063504
vt -0.126000 0.078624
vt -0.672000 -0.063504
vt -0.126000 0.078624
vt -0.126000 -0.078624
vt 0.189140 -0.126000
vt 0.000000 -0.126000
vt 0.000000 0.420000
vt 0.189140 -0.126000
vt 0.000000 0.420000
vt 0.174591 0.420000
vt 0.000000 -0.126000
vt -0.189140 -0.126000
vt -0.174591 0.420000
vt 0.000000 -0.126000
vt -0.174591 0.420000
vt 0.000000 0.420000
vt -0.126000 0.078624
vt -0.126000 -0.078624
vt 0.420000 -0.072576
vt -0.126000 0.078624
vt 0.420000 -0.072576
vt 0.420000 0.072576
vt -0.189140 -0.126000
vt -0.000000 -0.126000
vt -0.000000 0.420000
vt -0.189140 -0.126000
vt -0.000000 0.420000
vt -0.174591 0.420000
vt -0.000000 -0.126000
vt 0.189140 -0.126000
vt 0.174591 0.420000
vt -0.000000 -0.126000
vt 0.174591 0.420000
vt -0.000000 0.420000
vt -0.126000 -0.078624
vt -0.126000 0.078624
vt 0.420000 0.072576
vt -0.126000 -0.078624
vt 0.420000 0.072576
vt 0.420000 -0.072576
vt 0.174591 0.420000
vt 0.000000 0.420000
vt 0.000000 0.882000
vt 0.174591 0.420000
vt 0.000000 0.882000
vt 0.145492 0.882000
vt 0.000000 0.420000
vt -0.174591 0.420000
vt -0.145492 0.882000
vt 0.000000 0.420000
vt -0.145492 0.882000
vt 0.000000 0.882000
vt 0.420000 0.072576
vt 0.420000 -0.072576
vt 0.882000 -0.060480
vt 0.420000 0.072576
vt 0.882000 -0.060480
vt 0.882000 0.060480
vt -0.174591 0.420000
vt -0.000000 0.420000
vt -0.000000 0.882000
vt -0.174591 0.420000
vt -0.000000 0.882000
vt -0.145492 0.882000
vt -0.000000 0.420000
vt 0.174591 0.420000
vt 0.145492 0.882000
vt -0.000000 0.420000
vt 0.145492 0.882000
vt -0.000000 0.882000
vt 0.420000 -0.072576
vt 0.420000 0.072576
vt 0.882000 0.060480
vt 0.420000 -0.072576
vt 0.882000 0.060480
vt 0.882000 -0.060480
vt -0.000000 -0.000000
vt 0.000000 0.006048
vt 0.007275 0.003024
vt -0.000000 -0.000000
vt -0.007275 0.003024
vt 0.000000 0.006048
vt -0.000000 -0.000000
vt -0.007275 -0.003024
vt -0.007275 0.003024
vt -0.000000 -0.000000
vt -0.000000 -0.006048
vt -0.007275 -0.003024
vt -0.000000 -0.000000
vt 0.007275 -0.003024
vt -0.000000 -0.006048
vt -0.000000 -0.000000
vt 0.007275 0.003024
vt 0.007275 -0.003024
vt -0.000000 -0.000000
vt 0.145492 0.060480
vt 0.000000 0.120960
vt -0.000000 -0.000000
vt 0.000000 0.120960
vt -0.145492 0.060480
vt -0.000000 -0.000000
vt -0.145492 0.060480
vt -0.145492 -0.060480
vt -0.000000 -0.000000
vt -0.145492 -0.060480
vt -0.000000 -0.120960
vt -0.000000 -0.000000
vt -0.000000 -0.120960
vt 0.145492 -0.060480
vt -0.000000 -0.000000
vt 0.145492 -0.060480
vt 0.145492 0.060480
vt 0.018187 -0.798000
vt 0.000000 -0.798000
vt 0.000000 -0.588000
vt 0.018187 -0.798000
vt 0.000000 -0.588000
vt 0.072746 -0.588000
vt 0.000000 -0.798000
vt -0.018187 -0.798000
vt -0.072746 -0.588000
vt 0.000000 -0.798000
vt -0.072746 -0.588000
vt 0.000000 -0.588000
vt -0.798000 0.149310
vt -0.798000 0.136290
vt -0.588000 0.116760
vt -0.798000 0.149310
vt -0.588000 0.116760
vt -0.588000 0.168840
vt -0.018187 -0.798000
vt -0.000000 -0.798000
vt -0.000000 -0.588000
vt -0.018187 -0.798000
vt -0.000000 -0.588000
vt -0.072746 -0.588000
vt -0.000000 -0.798000
vt 0.018187 -0.798000
vt 0.072746 -0.588000
vt -0.000000 -0.798000
vt 0.072746 -0.588000
vt -0.000000 -0.588000
vt -0.798000 0.136290
vt -0.798000 0.149310
vt -0.588000 0.168840
vt -0.798000 0.136290
vt -0.588000 0.168840
vt -0.588000 0.116760
vt 0.072746 -0.588000
vt 0.000000 -0.588000
vt 0.000000 -0.294000
vt 0.072746 -0.588000
vt 0.000000 -0.294000
vt 0.094570 -0.294000
vt 0.000000 -0.588000
vt -0.072746 -0.588000
vt -0.094570 -0.294000
vt 0.000000 -0.588000
vt -0.094570 -0.294000
vt 0.000000 -0.294000
vt -0.588000 0.168840
vt -0.588000 0.116760
vt -0.294000 0.108948
vt -0.588000 0.168840
vt -0.294000 0.108948
vt -0.294000 0.176652
vt -0.072746 -0.588000
vt -0.000000 -0.588000
vt -0.000000 -0.294000
vt -0.072746 -0.588000
vt -0.000000 -0.294000
vt -0.094570 -0.294000
vt -0.000000 -0.588000
vt 0.072746 -0.588000
vt 0.094570 -0.294000
vt -0.000000 -0.588000
vt 0.094570 -0.294000
vt -0.000000 -0.294000
vt -0.588000 0.116760
vt -0.588000 0.168840
vt -0.294000 0.176652
vt -0.588000 0.116760
vt -0.294000 0.176652
vt -0.294000 0.108948
vt 0.094570 -0.294000
vt 0.000000 -0.294000
vt 0.000000 0.042000
vt 0.094570 -0.294000
vt 0.000000 0.042000
vt 0.065472 0.042000
vt 0.000000 -0.294000
vt -0.094570 -0.294000
vt -0.065472 0.042000
vt 0.000000 -0.294000
vt -0.065472 0.042000
vt 0.000000 0.042000
vt -0.294000 0.176652
vt -0.294000 0.108948
vt 0.042000 0.119364
vt -0.294000 0.176652
vt 0.042000 0.119364
vt 0.042000 0.166236
vt -0.094570 -0.294000
vt -0.000000 -0.294000
vt -0.000000 0.042000
vt -0.094570 -0.294000
vt -0.000000 0.042000
vt -0.065472 0.042000
vt -0.000000 -0.294000
vt 0.094570 -0.294000
vt 0.065472 0.042000
vt -0.000000 -0.294000
vt 0.065472 0.042000
vt -0.000000 0.042000
vt -0.294000 0.108948
vt -0.294000 0.176652
vt 0.042000 0.166236
vt -0.294000 0.108948
vt 0.042000 0.166236
vt 0.042000 0.119364
vt 0.065472 0.042000
vt 0.000000 0.042000
vt 0.000000 0.189000
vt 0.065472 0.042000
vt 0.000000 0.189000
vt 0.014549 0.189000
vt 0.000000 0.042000
vt -0.065472 0.042000
vt -0.014549 0.189000
vt 0.000000 0.042000
vt -0.014549 0.189000
vt 0.000000 0.189000
vt 0.042000 0.166236
vt 0.042000 0.119364
vt 0.189000 0.137592
vt 0.042000 0.166236
vt 0.189000 0.137592
vt 0.189000 0.148008
vt -0.065472 0.042000
vt -0.000000 0.042000
vt -0.000000 0.189000
vt -0.065472 0.042000
vt -0.000000 0.189000
vt -0.014549 0.189000
vt -0.000000 0.042000
vt 0.065472 0.042000
vt 0.014549 0.189000
vt -0.000000 0.042000
vt 0.014549 0.189000
vt -0.000000 0.189000
vt 0.042000 0.119364
vt 0.042000 0.166236
vt 0.189000 0.148008
vt 0.042000 0.119364
vt 0.189000 0.148008
vt 0.189000 0.137592
vt -0.000000 0.142800
vt 0.000000 0.155820
vt 0.018187 0.149310
vt -0.000000 0.142800
vt -0.018187 0.149310
vt 0.000000 0.155820
vt -0.000000 0.142800
vt -0.018187 0.136290
vt -0.018187 0.149310
vt -0.000000 0.142800
vt -0.000000 0.129780
vt -0.018187 0.136290
vt -0.000000 0.142800
vt 0.018187 0.136290
vt -0.000000 0.129780
vt -0.000000 0.142800
vt 0.018187 0.149310
vt 0.018187 0.136290
vt -0.000000 0.142800
vt 0.014549 0.148008
vt 0.000000 0.153216
vt -0.000000 0.142800
vt 0.000000 0.153216
vt -0.014549 0.148008
vt -0.000000 0.142800
vt -0.014549 0.148008
vt -0.014549 0.137592
vt -0.000000 0.142800
vt -0.014549 0.137592
vt -0.000000 0.132384
vt -0.000000 0.142800
vt -0.000000 0.132384
vt 0.014549 0.137592
vt -0.000000 0.142800
vt 0.014549 0.137592
vt 0.014549 0.148008
vt 0.147000 0.399000
vt 1.113000 0.672000
vt 1.113000 0.441000
vt 0.147000 0.399000
vt 1.113000 0.441000
vt 1.113000 0.672000
vt 0.147000 0.399000
vt 1.113000 0.441000
vt 0.147000 -0.252000
vt 0.147000 0.399000
vt 0.147000 -0.252000
vt 1.113000 0.441000
vt 0.147000 0.037800
vt 0.147000 -0.037800
vt 1.113000 -0.037800
vt 0.147000 0.037800
vt 1.113000 -0.037800
vt 1.113000 0.037800
vt 0.672000 0.037800
vt 0.672000 -0.037800
vt 0.441000 -0.037800
vt 0.672000 0.037800
vt 0.441000 -0.037800
vt 0.441000 0.037800
vt 1.113000 0.037800
vt 1.113000 -0.037800
vt 0.147000 -0.037800
vt 1.113000 0.037800
vt 0.147000 -0.037800
vt 0.147000 0.037800
vt -0.252000 0.037800
vt -0.252000 -0.037800
vt 0.399000 -0.037800
vt -0.252000 0.037800
vt 0.399000 -0.037800
vt 0.399000 0.037800
vt -0.147000 -0.252000
vt -1.113000 0.441000
vt -1.113000 0.672000
vt -0.147000 -0.252000
vt -1.113000 0.672000
vt -1.113000 0.441000
vt -0.147000 -0.252000
vt -1.113000 0.672000
vt -0.147000 0.399000
vt -0.147000 -0.252000
vt -0.147000 0.399000
vt -1.113000 0.672000
vt -0.147000 0.037800
vt -0.147000 -0.037800
vt -1.113000 -0.037800
vt -0.147000 0.037800
vt -1.113000 -0.037800
vt -1.113000 0.037800
vt 0.441000 0.037800
vt 0.441000 -0.037800
vt 0.672000 -0.037800
vt 0.441000 0.037800
vt 0.672000 -0.037800
vt 0.672000 0.037800
vt -1.113000 0.037800
vt -1.113000 -0.037800
vt -0.147000 -0.037800
vt -1.113000 0.037800
vt -0.147000 -0.037800
vt -0.147000 0.037800
vt 0.399000 0.037800
vt 0.399000 -0.037800
vt -0.252000 -0.037800
vt 0.399000 0.037800
vt -0.252000 -0.037800
vt -0.252000 0.037800
vt 0.861000 0.651000
vt 1.134000 0.680400
vt 1.134000 0.441000
vt 0.861000 0.651000
vt 1.134000 0.441000
vt 1.134000 0.680400
vt 0.861000 0.651000
vt 1.134000 0.441000
vt 0.861000 0.399000
vt 0.861000 0.651000
vt 0.861000 0.399000
vt 1.134000 0.441000
vt 0.861000 0.399000
vt 0.861000 0.021000
vt 1.134000 0.021000
vt 0.861000 0.399000
vt 1.134000 0.021000
vt 1.134000 0.399000
vt 0.680400 0.399000
vt 0.680400 0.021000
vt 0.441000 0.021000
vt 0.680400 0.399000
vt 0.441000 0.021000
vt 0.441000 0.399000
vt 1.134000 0.399000
vt 1.134000 0.021000
vt 0.861000 0.021000
vt 1.134000 0.399000
vt 0.861000 0.021000
vt 0.861000 0.399000
vt 0.399000 0.399000
vt 0.399000 0.021000
vt 0.651000 0.021000
vt 0.399000 0.399000
vt 0.651000 0.021000
vt 0.651000 0.399000
vt -0.861000 0.399000
vt -1.134000 0.441000
vt -1.134000 0.680400
vt -0.861000 0.399000
vt -1.134000 0.680400
vt -1.134000 0.441000
vt -0.861000 0.399000
vt -1.134000 0.680400
vt -0.861000 0.651000
vt -0.861000 0.399000
vt -0.861000 0.651000
vt -1.134000 0.680400
vt -0.861000 0.399000
vt -0.861000 0.021000
vt -1.134000 0.021000
vt -0.861000 0.399000
vt -1.134000 0.021000
vt -1.134000 0.399000
vt 0.441000 0.399000
vt 0.441000 0.021000
vt 0.680400 0.021000
vt 0.441000 0.399000
vt 0.680400 0.021000
vt 0.680400 0.399000
vt -1.134000 0.399000
vt -1.134000 0.021000
vt -0.861000 0.021000
vt -1.134000 0.399000
vt -0.861000 0.021000
vt -0.861000 0.399000
vt 0.651000 0.399000
vt 0.651000 0.021000
vt 0.399000 0.021000
vt 0.651000 0.399000
vt 0.399000 0.021000
vt 0.399000 0.399000
vt 0.231000 1.029000
vt 0.483000 1.029000
vt 0.483000 0.588000
vt 0.231000 1.029000
vt 0.483000 0.588000
vt 0.483000 1.029000
vt 0.231000 1.029000
vt 0.483000 0.588000
vt 0.231000 0.588000
vt 0.231000 1.029000
vt 0.231000 0.588000
vt 0.483000 0.588000
vt 0.231000 0.117600
vt 0.231000 -0.117600
vt 0.483000 -0.117600
vt 0.231000 0.117600
vt 0.483000 -0.117600
vt 0.483000 0.117600
vt 1.029000 0.117600
vt 1.029000 -0.117600
vt 0.588000 -0.117600
vt 1.029000 0.117600
vt 0.588000 -0.117600
vt 0.588000 0.117600
vt 0.483000 0.117600
vt 0.483000 -0.117600
vt 0.231000 -0.117600
vt 0.483000 0.117600
vt 0.231000 -0.117600
vt 0.231000 0.117600
vt 0.588000 0.117600
vt 0.588000 -0.117600
vt 1.029000 -0.117600
vt 0.588000 0.117600
vt 1.029000 -0.117600
vt 1.029000 0.117600
vt -0.231000 0.588000
vt -0.483000 0.588000
vt -0.483000 1.029000
vt -0.231000 0.588000
vt -0.483000 1.029000
vt -0.483000 0.588000
vt -0.231000 0.588000
vt -0.483000 1.029000
vt -0.231000 1.029000
vt -0.231000 0.588000
vt -0.231000 1.029000
vt -0.483000 1.029000
vt -0.231000 0.117600
vt -0.231000 -0.117600
vt -0.483000 -0.117600
vt -0.231000 0.117600
vt -0.483000 -0.117600
vt -0.483000 0.117600
vt 0.588000 0.117600
vt 0.588000 -0.117600
vt 1.029000 -0.117600
vt 0.588000 0.117600
vt 1.029000 -0.117600
vt 1.029000 0.117600
vt -0.483000 0.117600
vt -0.483000 -0.117600
vt -0.231000 -0.117600
vt -0.483000 0.117600
vt -0.231000 -0.117600
vt -0.231000 0.117600
vt 1.029000 0.117600
vt 1.029000 -0.117600
vt 0.588000 -0.117600
vt 1.029000 0.117600
vt 0.588000 -0.117600
vt 0.588000 0.117600
vt -0.042000 0.924000
vt 0.042000 0.924000
vt 0.042000 0.378000
vt -0.042000 0.924000
vt 0.042000 0.378000
vt 0.042000 0.924000
vt -0.042000 0.924000
vt 0.042000 0.378000
vt -0.042000 0.378000
vt -0.042000 0.924000
vt -0.042000 0.378000
vt 0.042000 0.378000
vt -0.042000 0.567000
vt -0.042000 0.126000
vt 0.042000 0.126000
vt -0.042000 0.567000
vt 0.042000 0.126000
vt 0.042000 0.567000
vt 0.924000 0.567000
vt 0.924000 0.126000
vt 0.378000 0.126000
vt 0.924000 0.567000
vt 0.378000 0.126000
vt 0.378000 0.567000
vt 0.042000 0.567000
vt 0.042000 0.126000
vt -0.042000 0.126000
vt 0.042000 0.567000
vt -0.042000 0.126000
vt -0.042000 0.567000
vt 0.378000 0.567000
vt 0.378000 0.126000
vt 0.924000 0.126000
vt 0.378000 0.567000
vt 0.924000 0.126000
vt 0.924000 0.567000
vn 0.378654 0.910899 -0.163962
vn 0.378654 0.910899 -0.163962
vn -0.378654 0.910899 -0.163962
vn -0.378654 0.910899 -0.163962
vn -0.977356 -0.000000 -0.211604
vn -0.977356 0.000000 -0.211604
vn -0.378654 -0.910899 -0.163962
vn -0.378654 -0.910899 -0.163962
vn 0.378654 -0.910899 -0.163962
vn 0.378654 -0.910899 -0.163962
vn 0.977356 -0.000000 -0.211604
vn 0.977356 -0.000000 -0.211604
vn 0.380500 0.915340 -0.131809
vn 0.380500 0.915340 -0.131809
vn -0.380500 0.915340 -0.131809
vn -0.380500 0.915340 -0.131809
vn -0.985329 -0.000000 -0.170664
vn -0.985329 -0.000000 -0.170664
vn -0.380500 -0.915340 -0.131809
vn -0.380500 -0.915340 -0.131809
vn 0.380500 -0.915340 -0.131809
vn 0.380500 -0.915340 -0.131809
vn 0.985329 -0.000000 -0.170664
vn 0.985329 -0.000000 -0.170664
vn 0.383348 0.922191 -0.051075
vn 0.383348 0.922191 -0.051075
vn -0.383348 0.922191 -0.051075
vn -0.383348 0.922191 -0.051075
vn -0.997788 -0.000000 -0.066470
vn -0.997788 -0.000000 -0.066470
vn -0.383348 -0.922191 -0.051075
vn -0.383348 -0.922191 -0.051075
vn 0.383348 -0.922191 -0.051075
vn 0.383348 -0.922191 -0.051075
vn 0.997788 -0.000000 -0.066470
vn 0.997788 -0.000000 -0.066470
vn 0.383768 0.923203 0.020452
vn 0.383768 0.923203 0.020452
vn -0.383768 0.923203 0.020452
vn -0.383768 0.923203 0.020452
vn -0.999645 -0.000000 0.026637
vn -0.999645 -0.000000 0.026637
vn -0.383768 -0.923203 0.020452
vn -0.383768 -0.923203 0.020452
vn 0.383768 -0.923203 0.020452
vn 0.383768 -0.923203 0.020452
vn 0.999645 -0.000000 0.026637
vn 0.999645 -0.000000 0.026637
vn 0.383401 0.922319 0.048296
vn 0.383401 0.922319 0.048296
vn -0.383401 0.922319 0.048296
vn -0.383401 0.922319 0.048296
vn -0.998022 -0.000000 0.062859
vn -0.998022 -0.000000 0.062859
vn -0.383401 -0.922319 0.048296
vn -0.383401 -0.922319 0.048296
vn 0.383401 -0.922319 0.048296
vn 0.383401 -0.922319 0.048296
vn 0.998022 -0.000000 0.062859
vn 0.998022 -0.000000 0.062859
vn 0.000000 0.000000 -1.000000
vn 0.000000 0.000000 -1.000000
vn -0.000000 0.000000 -1.000000
vn 0.000000 0.000000 -1.000000
vn 0.000000 -0.000000 -1.000000
vn 0.000000 0.000000 -1.000000
vn 0.000000 0.000000 1.000000
vn 0.000000 -0.000000 1.000000
vn 0.000000 0.000000 1.000000
vn 0.000000 0.000000 1.000000
vn 0.000000 0.000000 1.000000
vn -0.000000 0.000000 1.000000
vn 0.331965 0.927386 -0.172494
vn 0.331965 0.927386 -0.172494
vn -0.331965 0.927386 -0.172494
vn -0.331965 0.927386 -0.172494
vn -0.967868 -0.000000 -0.251459
vn -0.967868 -0.000000 -0.251459
vn -0.331965 -0.927386 -0.172494
vn -0.331965 -0.927386 -0.172494
vn 0.331965 -0.927386 -0.172494
vn 0.331965 -0.927386 -0.172494
vn 0.967868 -0.000000 -0.251459
vn 0.967868 -0.000000 -0.251459
vn 0.336595 0.940323 -0.049971
vn 0.336595 0.940323 -0.049971
vn -0.336595 0.940323 -0.049971
vn -0.336595 0.940323 -0.049971
vn -0.997256 -0.000000 -0.074027
vn -0.997256 -0.000000 -0.074027
vn -0.336595 -0.940323 -0.049971
vn -0.336595 -0.940323 -0.049971
vn 0.336595 -0.940323 -0.049971
vn 0.336595 -0.940323 -0.049971
vn 0.997256 -0.000000 -0.074027
vn 0.997256 -0.000000 -0.074027
vn 0.336444 0.939899 0.058274
vn 0.336444 0.939899 0.058274
vn -0.336444 0.939899 0.058274
vn -0.336444 0.939899 0.058274
vn -0.996271 -0.000000 0.086280
vn -0.996271 -0.000000 0.086280
vn -0.336444 -0.939899 0.058274
vn -0.336444 -0.939899 0.058274
vn 0.336444 -0.939899 0.058274
vn 0.336444 -0.939899 0.058274
vn 0.996271 -0.000000 0.086280
vn 0.996271 -0.000000 0.086280
vn 0.328189 0.916838 0.227376
vn 0.328189 0.916838 0.227376
vn -0.328189 0.916838 0.227376
vn -0.328189 0.916838 0.227376
vn -0.944911 -0.000000 0.327327
vn -0.944911 0.000000 0.327327
vn -0.328189 -0.916838 0.227376
vn -0.328189 -0.916838 0.227376
vn 0.328189 -0.916838 0.227376
vn 0.328189 -0.916838 0.227376
vn 0.944911 -0.000000 0.327327
vn 0.944911 0.000000 0.327327
vn 0.000000 0.000000 -1.000000
vn 0.000000 0.000000 -1.000000
vn -0.000000 0.000000 -1.000000
vn 0.000000 0.000000 -1.000000
vn 0.000000 -0.000000 -1.000000
vn 0.000000 0.000000 -1.000000
vn 0.000000 0.000000 1.000000
vn 0.000000 -0.000000 1.000000
vn 0.000000 0.000000 1.000000
vn 0.000000 0.000000 1.000000
vn 0.000000 0.000000 1.000000
vn -0.000000 0.000000 1.000000
vn 0.000000 1.000000 0.000000
vn 0.000000 -1.000000 0.000000
vn -0.000000 1.000000 0.000000
vn 0.000000 -1.000000 0.000000
vn -0.271957 0.000000 0.962309
vn -0.271957 0.000000 0.962309
vn 1.000000 0.000000 0.000000
vn 1.000000 0.000000 0.000000
vn 0.582908 0.000000 -0.812538
vn 0.582908 0.000000 -0.812538
vn -1.000000 0.000000 0.000000
vn -1.000000 0.000000 0.000000
vn 0.000000 1.000000 0.000000
vn 0.000000 -1.000000 0.000000
vn 0.000000 1.000000 -0.000000
vn 0.000000 -1.000000 0.000000
vn -0.582908 -0.000000 -0.812538
vn -0.582908 0.000000 -0.812538
vn -1.000000 0.000000 0.000000
vn -1.000000 0.000000 0.000000
vn 0.271957 0.000000 0.962309
vn 0.271957 0.000000 0.962309
vn 1.000000 0.000000 0.000000
vn 1.000000 0.000000 0.000000
vn -0.000000 1.000000 0.000000
vn 0.000000 -1.000000 0.000000
vn 0.000000 1.000000 0.000000
vn 0.000000 -1.000000 0.000000
vn -0.107073 0.000000 0.994251
vn -0.107073 0.000000 0.994251
vn 1.000000 0.000000 0.000000
vn 1.000000 0.000000 0.000000
vn 0.152057 0.000000 -0.988372
vn 0.152057 0.000000 -0.988372
vn -1.000000 0.000000 0.000000
vn -1.000000 0.000000 0.000000
vn 0.000000 1.000000 0.000000
vn 0.000000 -1.000000 0.000000
vn 0.000000 1.000000 -0.000000
vn 0.000000 -1.000000 0.000000
vn -0.152057 -0.000000 -0.988372
vn -0.152057 0.000000 -0.988372
vn -1.000000 0.000000 0.000000
vn -1.000000 0.000000 0.000000
vn 0.107073 0.000000 0.994251
vn 0.107073 0.000000 0.994251
vn 1.000000 0.000000 0.000000
vn 1.000000 0.000000 0.000000
vn -0.000000 1.000000 0.000000
vn 0.000000 -1.000000 0.000000
vn 0.000000 1.000000 0.000000
vn 0.000000 -1.000000 0.000000
vn 0.000000 0.000000 1.000000
vn -0.000000 0.000000 1.000000
vn 1.000000 0.000000 0.000000
vn 1.000000 0.000000 0.000000
vn 0.000000 -0.000000 -1.000000
vn -0.000000 0.000000 -1.000000
vn -1.000000 0.000000 0.000000
vn -1.000000 0.000000 0.000000
vn 0.000000 1.000000 0.000000
vn 0.000000 -1.000000 0.000000
vn 0.000000 1.000000 -0.000000
vn 0.000000 -1.000000 0.000000
vn 0.000000 -0.000000 -1.000000
vn -0.000000 0.000000 -1.000000
vn -1.000000 0.000000 0.000000
vn -1.000000 0.000000 0.000000
vn 0.000000 0.000000 1.000000
vn -0.000000 0.000000 1.000000
vn 1.000000 0.000000 0.000000
vn 1.000000 0.000000 0.000000
vn -0.000000 1.000000 0.000000
vn 0.000000 -1.000000 0.000000
vn 0.000000 1.000000 0.000000
vn 0.000000 -1.000000 0.000000
vn 0.000000 0.000000 1.000000
vn -0.000000 0.000000 1.000000
vn 1.000000 0.000000 0.000000
vn 1.000000 0.000000 0.000000
vn 0.000000 -0.000000 -1.000000
vn -0.000000 0.000000 -1.000000
vn -1.000000 0.000000 0.000000
vn -1.000000 0.000000 0.000000
f 1/1/1 2/2/1 3/3/1
f 4/4/2 5/5/2 6/6/2
f 7/7/3 8/8/3 9/9/3
f 10/10/4 11/11/4 12/12/4
f 13/13/5 14/14/5 15/15/5
f 16/16/6 17/17/6 18/18/6
f 19/19/7 20/20/7 21/21/7
f 22/22/8 23/23/8 24/24/8
f 25/25/9 26/26/9 27/27/9
f 28/28/10 29/29/10 30/30/10
f 31/31/11 32/32/11 33/33/11
f 34/34/12 35/35/12 36/36/12
f 37/37/13 38/38/13 39/39/13
f 40/40/14 41/41/14 42/42/14
f 43/43/15 44/44/15 45/45/15
f 46/46/16 47/47/16 48/48/16
f 49/49/17 50/50/17 51/51/17
f 52/52/18 53/53/18 54/54/18
f 55/55/19 56/56/19 57/57/19
f 58/58/20 59/59/20 60/60/20
f 61/61/21 62/62/21 63/63/21
f 64/64/22 65/65/22 66/66/22
f 67/67/23 68/68/23 69/69/23
f 70/70/24 71/71/24 72/72/24
f 73/73/25 74/74/25 75/75/25
f 76/76/26 77/77/26 78/78/26
f 79/79/27 80/80/27 81/81/27
f 82/82/28 83/83/28 84/84/28
f 85/85/29 86/86/29 87/87/29
f 88/88/30 89/89/30 90/90/30
f 91/91/31 92/92/31 93/93/31
f 94/94/32 95/95/32 96/96/32
f 97/97/33 98/98/33 99/99/33
f 100/100/34 101/101/34 102/102/34
f 103/103/35 104/104/35 105/105/35
f 106/106/36 107/107/36 108/108/36
f 109/109/37 110/110/37 111/111/37
f 112/112/38 113/113/38 114/114/38
f 115/115/39 116/116/39 117/117/39
f 118/118/40 119/119/40 120/120/40
f 121/121/41 122/122/41 123/123/41
f 124/124/42 125/125/42 126/126/42
f 127/127/43 128/128/43 129/129/43
f 130/130/44 131/131/44 132/132/44
f 133/133/45 134/134/45 135/135/45
f 136/136/46 137/137/46 138/138/46
f 139/139/47 140/140/47 141/141/47
f 142/142/48 143/143/48 144/144/48
f 145/145/49 146/146/49 147/147/49
f 148/148/50 149/149/50 150/150/50
f 151/151/51 152/152/51 153/153/51
f 154/154/52 155/155/52 156/156/52
f 157/157/53 158/158/53 159/159/53
f 160/160/54 161/161/54 162/162/54
f 163/163/55 164/164/55 165/165/55
f 166/166/56 167/167/56 168/168/56
f 169/169/57 170/170/57 171/171/57
f 172/172/58 173/173/58 174/174/58
f 175/175/59 176/176/59 177/177/59
f 178/178/60 179/179/60 180/180/60
f 181/181/61 182/182/61 183/183/61
f 184/184/62 185/185/62 186/186/62
f 187/187/63 188/188/63 189/189/63
f 190/190/64 191/191/64 192/192/64
f 193/193/65 194/194/65 195/195/65
f 196/196/66 197/197/66 198/198/66
f 199/199/67 200/200/67 201/201/67
f 202/202/68 203/203/68 204/204/68
f 205/205/69 206/206/69 207/207/69
f 208/208/70 209/209/70 210/210/70
f 211/211/71 212/212/71 213/213/71
f 214/214/72 215/215/72 216/216/72
f 217/217/73 218/218/73 219/219/73
f 220/220/74 221/221/74 222/222/74
f 223/223/75 224/224/75 225/225/75
f 226/226/76 227/227/76 228/228/76
f 229/229/77 230/230/77 231/231/77
f 232/232/78 233/233/78 234/234/78
f 235/235/79 236/236/79 237/237/79
f 238/238/80 239/239/80 240/240/80
f 241/241/81 242/242/81 243/243/81
f 244/244/82 245/245/82 246/246/82
f 247/247/83 248/248/83 249/249/83
f 250/250/84 251/251/84 252/252/84
f 253/253/85 254/254/85 255/255/85
f 256/256/86 257/257/86 258/258/86
f 259/259/87 260/260/87 261/261/87
f 262/262/88 263/263/88 264/264/88
f 265/265/89 266/266/89 267/267/89
f 268/268/90 269/269/90 270/270/90
f 271/271/91 272/272/91 273/273/91
f 274/274/92 275/275/92 276/276/92
f 277/277/93 278/278/93 279/279/93
f 280/280/94 281/281/94 282/282/94
f 283/283/95 284/284/95 285/285/95
f 286/286/96 287/287/96 288/288/96
f 289/289/97 290/290/97 291/291/97
f 292/292/98 293/293/98 294/294/98
f 295/295/99 296/296/99 297/297/99
f 298/298/100 299/299/100 300/300/100
f 301/301/101 302/302/101 303/303/101
f 304/304/102 305/305/102 306/306/102
f 307/307/103 308/308/103 309/309/103
f 310/310/104 311/311/104 312/312/104
f 313/313/105 314/314/105 315/315/105
f 316/316/106 317/317/106 318/318/106
f 319/319/107 320/320/107 321/321/107
f 322/322/108 323/323/108 324/324/108
f 325/325/109 326/326/109 327/327/109
f 328/328/110 329/329/110 330/330/110
f 331/331/111 332/332/111 333/333/111
f 334/334/112 335/335/112 336/336/112
f 337/337/113 338/338/113 339/339/113
f 340/340/114 341/341/114 342/342/114
f 343/343/115 344/344/115 345/345/115
f 346/346/116 347/347/116 348/348/116
f 349/349/117 350/350/117 351/351/117
f 352/352/118 353/353/118 354/354/118
f 355/355/119 356/356/119 357/357/119
f 358/358/120 359/359/120 360/360/120
f 361/361/121 362/362/121 363/363/121
f 364/364/122 365/365/122 366/366/122
f 367/367/123 368/368/123 369/369/123
f 370/370/124 371/371/124 372/372/124
f 373/373/125 374/374/125 375/375/125
f 376/376/126 377/377/126 378/378/126
f 379/379/127 380/380/127 381/381/127
f 382/382/128 383/383/128 384/384/128
f 385/385/129 386/386/129 387/387/129
f 388/388/130 389/389/130 390/390/130
f 391/391/131 392/392/131 393/393/131
f 394/394/132 395/395/132 396/396/132
f 397/397/133 398/398/133 399/399/133
f 400/400/134 401/401/134 402/402/134
f 403/403/135 404/404/135 405/405/135
f 406/406/136 407/407/136 408/408/136
f 409/409/137 410/410/137 411/411/137
f 412/412/138 413/413/138 414/414/138
f 415/415/139 416/416/139 417/417/139
f 418/418/140 419/419/140 420/420/140
f 421/421/141 422/422/141 423/423/141
f 424/424/142 425/425/142 426/426/142
f 427/427/143 428/428/143 429/429/143
f 430/430/144 431/431/144 432/432/144
f 433/433/145 434/434/145 435/435/145
f 436/436/146 437/437/146 438/438/146
f 439/439/147 440/440/147 441/441/147
f 442/442/148 443/443/148 444/444/148
f 445/445/149 446/446/149 447/447/149
f 448/448/150 449/449/150 450/450/150
f 451/451/151 452/452/151 453/453/151
f 454/454/152 455/455/152 456/456/152
f 457/457/153 458/458/153 459/459/153
f 460/460/154 461/461/154 462/462/154
f 463/463/155 464/464/155 465/465/155
f 466/466/156 467/467/156 468/468/156
f 469/469/157 470/470/157 471/471/157
f 472/472/158 473/473/158 474/474/158
f 475/475/159 476/476/159 477/477/159
f 478/478/160 479/479/160 480/480/160
f 481/481/161 482/482/161 483/483/161
f 484/484/162 485/485/162 486/486/162
f 487/487/163 488/488/163 489/489/163
f 490/490/164 491/491/164 492/492/164
f 493/493/165 494/494/165 495/495/165
f 496/496/166 497/497/166 498/498/166
f 499/499/167 500/500/167 501/501/167
f 502/502/168 503/503/168 504/504/168
f 505/505/169 506/506/169 507/507/169
f 508/508/170 509/509/170 510/510/170
f 511/511/171 512/512/171 513/513/171
f 514/514/172 515/515/172 516/516/172
f 517/517/173 518/518/173 519/519/173
f 520/520/174 521/521/174 522/522/174
f 523/523/175 524/524/175 525/525/175
f 526/526/176 527/527/176 528/528/176
f 529/529/177 530/530/177 531/531/177
f 532/532/178 533/533/178 534/534/178
f 535/535/179 536/536/179 537/537/179
f 538/538/180 539/539/180 540/540/180
f 541/541/181 542/542/181 543/543/181
f 544/544/182 545/545/182 546/546/182
f 547/547/183 548/548/183 549/549/183
f 550/550/184 551/551/184 552/552/184
f 553/553/185 554/554/185 555/555/185
f 556/556/186 557/557/186 558/558/186
f 559/559/187 560/560/187 561/561/187
f 562/562/188 563/563/188 564/564/188
f 565/565/189 566/566/189 567/567/189
f 568/568/190 569/569/190 570/570/190
f 571/571/191 572/572/191 573/573/191
f 574/574/192 575/575/192 576/576/192
f 577/577/193 578/578/193 579/579/193
f 580/580/194 581/581/194 582/582/194
f 583/583/195 584/584/195 585/585/195
f 586/586/196 587/587/196 588/588/196
f 589/589/197 590/590/197 591/591/197
f 592/592/198 593/593/198 594/594/198
f 595/595/199 596/596/199 597/597/199
f 598/598/200 599/599/200 600/600/200
f 601/601/201 602/602/201 603/603/201
f 604/604/202 605/605/202 606/606/202
f 607/607/203 608/608/203 609/609/203
f 610/610/204 611/611/204 612/612/204
f 613/613/205 614/614/205 615/615/205
f 616/616/206 617/617/206 618/618/206
f 619/619/207 620/620/207 621/621/207
f 622/622/208 623/623/208 624/624/208
f 625/625/209 626/626/209 627/627/209
f 628/628/210 629/629/210 630/630/210
f 631/631/211 632/632/211 633/633/211
f 634/634/212 635/635/212 636/636/212
f 637/637/213 638/638/213 639/639/213
f 640/640/214 641/641/214 642/642/214
f 643/643/215 644/644/215 645/645/215
f 646/646/216 647/647/216 648/648/216
