# Crema brick - generated by tools/gen_bricks.py, MIT
o wedge
v 0.000000 0.000000 -0.500000
v 0.500000 0.000000 0.500000
v -0.500000 0.000000 0.500000
v 0.000000 0.000000 -0.500000
v -0.500000 0.000000 0.500000
v 0.000000 1.000000 0.300000
v 0.000000 0.000000 -0.500000
v 0.000000 1.000000 0.300000
v 0.500000 0.000000 0.500000
v -0.500000 0.000000 0.500000
v 0.500000 0.000000 0.500000
v 0.000000 1.000000 0.300000
vt 0.500000 0.000000
vt 1.000000 1.000000
vt 0.000000 1.000000
vt 0.500000 0.000000
vt 0.000000 1.000000
vt 0.500000 1.000000
vt 0.500000 0.000000
vt 0.500000 1.000000
vt 1.000000 1.000000
vt 0.000000 0.000000
vt 1.000000 0.000000
vt 0.500000 1.000000
vn 0.000000 -1.000000 0.000000
vn 0.000000 -1.000000 0.000000
vn 0.000000 -1.000000 0.000000
vn -0.842152 0.336861 -0.421076
vn -0.842152 0.336861 -0.421076
vn -0.842152 0.336861 -0.421076
vn 0.842152 0.336861 -0.421076
vn 0.842152 0.336861 -0.421076
vn 0.842152 0.336861 -0.421076
vn -0.000000 0.196116 0.980581
vn -0.000000 0.196116 0.980581
vn -0.000000 0.196116 0.980581
f 1/1/1 2/2/2 3/3/3
f 4/4/4 5/5/5 6/6/6
f 7/7/7 8/8/8 9/9/9
f 10/10/10 11/11/11 12/12/12
